<?xml version="1.0" encoding="UTF-8"?>
<svg id="Layer_1" xmlns="http://www.w3.org/2000/svg" version="1.1" viewBox="0 0 1920 1080">
  <!-- Generator: Adobe Illustrator 30.2.1, SVG Export Plug-In . SVG Version: 2.1.1 Build 1)  -->
  <defs>
    <style>
      .st0 {
        fill: #E8C99B;
      }

      .st0, .st1 {
        stroke: none;
      }

      .st1 {
        fill: #8b4513;
      }
    </style>
  </defs>
  <path class="st0" d="M380.88,564.04v-3.95c0-69.11,22.97-172.93,108.35-230.12,113.41-75.97,317.55-99.23,535.37-137.91,135.6-24.07,275.08,5.04,392.2,85.07,107.99,73.79,174.2,173.36,174.2,282.96v3.95c0,109.6-66.22,209.17-174.2,282.96-117.14,80.03-256.6,109.14-392.2,85.07-381.81-67.78-643.71-207.11-643.71-368.02h-.01Z"/>
  <path class="st1" d="M1016.35,98.87c-161.67-28.7-327.96,6-467.61,101.42-128.75,87.97-207.7,206.7-207.7,337.36v4.7c0,130.66,78.95,249.39,207.7,337.36,139.65,95.42,305.94,130.12,467.61,101.42,455.21-80.81,767.49-246.93,767.49-438.78v-4.7c0-191.85-312.28-357.97-767.49-438.78h0ZM1568.55,563.97c0,105.53-63.76,201.41-167.74,272.46-112.79,77.06-247.08,105.09-377.65,81.91-367.64-65.27-619.83-199.43-619.83-354.37v-3.8c0-70.57,19.47-169.66,111.18-227.06,53.03-33.19,152.08-30.59,228.96-56.98,82.08-28.18,176.33-51.98,279.7-70.33,130.57-23.18,264.87,4.85,377.65,81.91,103.98,71.05,167.74,166.93,167.74,272.46v3.8h-.01Z"/>
</svg>