<svg 
    version="1.1" 
    xmlns="http://www.w3.org/2000/svg" 
    xmlns:xlink="http://www.w3.org/1999/xlink" 
    viewBox="0 0 512.001 512.001" 
    xml:space="preserve"
>
    <!-- White top section -->
    <polygon 
        fill="#FFFFFF" 
        points="48.046,411.152 184.682,411.152 172.076,209.455 60.652,209.455" 
    />
    
    <!-- Brown top section -->
    <polygon 
        fill="#79674C" 
        points="327.319,411.152 463.955,411.152 451.349,209.455 339.925,209.455" 
    />
    
    <!-- Left bowl/container -->
    <g>
        <path 
            fill="#A9A8AE" 
            d="M37.338,209.382c0.483,0.029,0.962,0.073,1.451,0.073h21.864h111.424h21.864 c0.489,0,0.968-0.043,1.451-0.073c12.173-0.752,21.822-10.836,21.822-23.2v-0.725v-30.306c0-55.608-45.241-100.848-100.848-100.848 S15.516,99.544,15.516,155.152v30.306v0.725C15.516,198.546,25.165,208.63,37.338,209.382z" 
        />
        <path 
            fill="#A9A8AE" 
            d="M316.611,209.382c0.483,0.031,0.96,0.073,1.451,0.073h21.864h111.424h21.864 c0.489,0,0.968-0.043,1.451-0.073c12.173-0.752,21.822-10.836,21.822-23.2v-0.725v-30.306c0-55.608-45.241-100.848-100.848-100.848 S294.788,99.544,294.788,155.152v30.306v0.725C294.788,198.546,304.437,208.63,316.611,209.382z" 
        />
    </g>
    
    <!-- Blue base/support -->
    <g>
        <path 
            fill="#8CB7E8" 
            d="M217.213,185.458v0.725c0,12.364-9.649,22.447-21.822,23.2c-0.483,0.031-0.96,0.073-1.451,0.073 h-21.864l12.606,201.697H48.046l12.606-201.697H38.788c-0.489,0-0.968-0.043-1.451-0.073c-12.173-0.752-21.822-10.836-21.822-23.2 v-0.725L0.046,432.974c-0.402,6.411,1.866,12.704,6.265,17.386c4.399,4.681,10.538,7.337,16.963,7.337h186.182 c6.425,0,12.564-2.656,16.963-7.337c4.399-4.682,6.667-10.975,6.265-17.386L217.213,185.458z" 
        />
        <path 
            fill="#8CB7E8" 
            d="M496.485,185.458v0.725c0,12.364-9.649,22.447-21.822,23.2c-0.483,0.031-0.96,0.073-1.451,0.073 h-21.864l12.606,201.697H327.319l12.606-201.697h-21.864c-0.489,0-0.968-0.043-1.451-0.073 c-12.173-0.752-21.822-10.836-21.822-23.2v-0.725l-15.47,247.515c-0.402,6.411,1.866,12.704,6.265,17.386 c4.399,4.682,10.538,7.339,16.963,7.339h186.182c6.425,0,12.564-2.656,16.963-7.337c4.399-4.682,6.667-10.975,6.265-17.386 L496.485,185.458z" 
        />
    </g>
    
    <!-- Left orange/gold bowl -->
    <path 
        fill="#FFB655" 
        d="M116.364,54.304c-55.608,0-100.848,45.241-100.848,100.848v30.306v0.725 c0,12.364,9.649,22.447,21.822,23.2c0.483,0.029,0.962,0.073,1.451,0.073h21.864h55.712h55.712h21.864 c0.489,0,0.968-0.043,1.451-0.073c12.173-0.752,21.822-10.836,21.822-23.2v-0.725v-30.306 C217.213,99.544,171.972,54.304,116.364,54.304z" 
    />
    
    <!-- Light blue overlay left -->
    <path 
        fill="#B3D8F4" 
        d="M232.683,432.973l-15.47-247.515v0.725c0,12.364-9.649,22.447-21.822,23.2 c-0.483,0.031-0.96,0.073-1.451,0.073h-21.864h-55.712H60.652H38.788c-0.489,0-0.968-0.043-1.451-0.073 c-12.173-0.752-21.822-10.836-21.822-23.2v-0.725L0.046,432.973c-0.402,6.411,1.866,12.704,6.265,17.386 c4.399,4.682,10.538,7.339,16.963,7.339h93.091h93.091c6.425,0,12.564-2.656,16.963-7.337 C230.816,445.676,233.085,439.385,232.683,432.973z" 
    />
    
    <!-- Gray middle connectors -->
    <polygon 
        fill="#C3C3C7" 
        points="172.076,209.455 116.364,209.455 60.652,209.455 48.046,411.152 116.364,411.152 184.682,411.152" 
    />
    <polygon 
        fill="#A9A8AE" 
        points="60.652,209.455 48.046,411.152 116.364,411.152 116.364,209.455" 
    />
    
    <!-- Left dark orange accent -->
    <path 
        fill="#EE8700" 
        d="M15.516,155.152v30.306v0.725c0,12.364,9.649,22.447,21.822,23.2 c0.483,0.029,0.962,0.073,1.451,0.073h21.864h55.712V54.304C60.756,54.304,15.516,99.544,15.516,155.152z" 
    />
    
    <!-- Left blue connector -->
    <path 
        fill="#8CB7E8" 
        d="M48.046,411.152l12.606-201.697H38.788c-0.489,0-0.968-0.043-1.451-0.073 c-12.173-0.752-21.822-10.836-21.822-23.2v-0.725L0.046,432.973c-0.402,6.411,1.866,12.704,6.265,17.386 c4.399,4.682,10.538,7.339,16.963,7.339h93.091v-46.545H48.046z" 
    />
    
    <!-- Right orange/gold bowl -->
    <path 
        fill="#FFB655" 
        d="M395.637,54.304c-55.608,0-100.848,45.241-100.848,100.848v30.306v0.725 c0,12.364,9.649,22.447,21.822,23.2c0.483,0.031,0.96,0.073,1.451,0.073h21.864h55.712h55.712h21.864 c0.489,0,0.968-0.043,1.451-0.073c12.173-0.752,21.822-10.836,21.822-23.2v-0.725v-30.306 C496.485,99.544,451.245,54.304,395.637,54.304z" 
    />
    
    <!-- Light blue overlay right -->
    <path 
        fill="#B3D8F4" 
        d="M511.956,432.973l-15.47-247.515v0.725c0,12.364-9.649,22.447-21.822,23.2 c-0.483,0.031-0.96,0.073-1.451,0.073h-21.864h-55.712h-55.712h-21.864c-0.489,0-0.968-0.043-1.451-0.073 c-12.173-0.752-21.822-10.836-21.822-23.2v-0.725l-15.47,247.515c-0.402,6.411,1.866,12.704,6.265,17.386 c4.399,4.682,10.538,7.339,16.963,7.339h93.091h93.091c6.425,0,12.564-2.656,16.963-7.337 C510.089,445.676,512.357,439.385,511.956,432.973z" 
    />
    
    <!-- Brown right connectors -->
    <polygon 
        fill="#A78966" 
        points="451.349,209.455 395.637,209.455 339.925,209.455 327.319,411.152 395.637,411.152 463.955,411.152" 
    />
    <polygon 
        fill="#806749" 
        points="339.925,209.455 327.319,411.152 395.637,411.152 395.637,209.455" 
    />
    
    <!-- Right dark orange accent -->
    <path 
        fill="#EE8700" 
        d="M294.788,155.152v30.306v0.725c0,12.364,9.649,22.447,21.822,23.2 c0.483,0.031,0.96,0.073,1.451,0.073h21.864h55.712V54.304C340.029,54.304,294.788,99.544,294.788,155.152z" 
    />
    
    <!-- Right blue connector -->
    <path 
        fill="#8CB7E8" 
        d="M327.319,411.152l12.606-201.697h-21.864c-0.489,0-0.968-0.043-1.451-0.073 c-12.173-0.752-21.822-10.836-21.822-23.2v-0.725l-15.47,247.515c-0.402,6.411,1.866,12.704,6.265,17.386 c4.399,4.682,10.538,7.339,16.963,7.339h93.091v-46.545H327.319z" 
    />
</svg>